{"glyphs":{":":{"x_min":0,"x_max":206,"ha":206,"o":"m 143 41 b 143 63 125 80 103 80 b 81 80 63 63 63 41 b 63 19 81 1 103 1 b 125 1 143 19 143 41 z m 143 235 b 143 257 125 275 103 275 b 81 275 63 257 63 235 b 63 213 81 196 103 196 b 125 196 143 213 143 235 z"},"$":{"x_min":0,"x_max":319,"ha":319,"o":"m 259 601 b 259 647 228 686 186 697 l 186 798 l 133 798 l 133 697 b 91 686 60 647 60 601 l 60 490 b 60 404 103 363 141 327 b 176 294 206 266 206 204 l 206 99 b 206 74 185 53 159 53 b 134 53 113 74 113 99 l 113 187 l 60 187 l 60 99 b 60 54 91 15 133 3 l 133 -85 l 186 -85 l 186 3 b 228 15 259 54 259 99 l 259 204 b 259 289 216 330 178 366 b 143 398 113 427 113 490 l 113 601 b 113 627 134 648 159 648 b 185 648 206 627 206 601 l 206 518 l 259 518 z"},"?":{"x_min":0,"x_max":319,"ha":319,"o":"m 160 700 b 105 700 60 655 60 600 l 60 513 l 113 513 l 113 600 b 113 626 134 647 160 647 b 186 647 207 626 207 600 l 207 521 b 207 419 188 386 168 352 b 146 314 123 274 123 164 l 176 164 b 176 260 194 292 213 325 b 236 364 260 405 260 521 l 260 600 b 260 655 215 700 160 700 z m 176 0 l 176 82 l 123 82 l 123 0 z"},"<":{"x_min":0,"x_max":306,"ha":306,"o":"m 266 237 l 111 349 l 266 461 l 235 504 l 20 349 l 235 194 z"},"'":{"x_min":0,"x_max":253,"ha":253,"o":"m 153 522 l 153 700 l 100 700 l 100 522 z"},"=":{"x_min":0,"x_max":328,"ha":328,"o":"m 50 387 l 278 387 l 278 440 l 50 440 z m 278 260 l 278 313 l 50 313 l 50 260 z"},"a":{"x_min":0,"x_max":360,"ha":360,"o":"m 320 0 l 203 700 l 158 700 l 40 0 l 94 0 l 121 160 l 240 160 l 266 0 z m 180 514 l 231 213 l 130 213 z"},"L":{"x_min":0,"x_max":336,"ha":336,"o":"m 296 53 l 153 53 l 153 700 l 100 700 l 100 0 l 296 0 z"},"3":{"x_min":0,"x_max":319,"ha":319,"o":"m 260 600 b 260 655 215 700 160 700 b 105 700 60 655 60 600 l 60 519 l 113 519 l 113 600 b 113 626 134 647 160 647 b 186 647 207 626 207 600 l 207 409 b 207 385 192 379 180 377 l 160 377 l 160 324 l 184 324 b 192 322 207 316 207 291 l 207 100 b 207 74 186 53 160 53 b 134 53 113 74 113 100 l 113 181 l 60 181 l 60 100 b 60 45 105 0 160 0 b 215 0 260 45 260 100 l 260 291 b 260 318 251 337 239 350 b 251 364 260 383 260 409 z"},";":{"x_min":0,"x_max":206,"ha":206,"o":"m 126 20 l 79 44 l 0 -115 l 48 -139 z m 143 235 b 143 257 125 275 103 275 b 81 275 63 257 63 235 b 63 213 81 196 103 196 b 125 196 143 213 143 235 z"},"J":{"x_min":0,"x_max":299,"ha":299,"o":"m 139 0 b 194 0 239 45 239 99 l 239 700 l 186 700 l 186 99 b 186 74 165 53 139 53 b 114 53 93 74 93 99 l 93 187 l 40 187 l 40 99 b 40 45 85 0 139 0 z"},"V":{"x_min":0,"x_max":360,"ha":360,"o":"m 202 0 l 320 700 l 266 700 l 180 187 l 94 700 l 40 700 l 157 0 z"},"\"":{"x_min":0,"x_max":355,"ha":355,"o":"m 153 522 l 153 700 l 100 700 l 100 522 z m 202 522 l 255 522 l 255 700 l 202 700 z"},"7":{"x_min":0,"x_max":291,"ha":291,"o":"m 251 700 l 40 700 l 40 647 l 185 647 l 40 0 l 94 0 z"},"S":{"x_min":0,"x_max":319,"ha":319,"o":"m 159 0 b 214 0 259 45 259 99 l 259 224 b 259 309 216 349 178 385 b 143 418 113 447 113 509 l 113 601 b 113 626 134 647 159 647 b 185 647 206 626 206 601 l 206 518 l 259 518 l 259 601 b 259 655 214 700 159 700 b 105 700 60 655 60 601 l 60 509 b 60 424 103 383 141 347 b 176 314 206 286 206 224 l 206 99 b 206 74 185 53 159 53 b 134 53 113 74 113 99 l 113 187 l 60 187 l 60 99 b 60 45 105 0 159 0 z"},"}":{"x_min":0,"x_max":301,"ha":301,"o":"m 80 0 b 143 0 183 38 183 98 l 183 282 b 183 302 193 323 221 323 l 221 377 b 193 377 183 398 183 418 l 183 602 b 183 662 143 700 80 700 l 80 647 b 113 647 130 632 130 602 l 130 418 b 130 391 140 367 156 350 b 140 333 130 309 130 282 l 130 98 b 130 68 113 53 80 53 z"},"Z":{"x_min":0,"x_max":358,"ha":358,"o":"m 264 53 l 129 53 l 298 700 l 94 700 l 94 647 l 230 647 l 60 0 l 264 0 z"},"x":{"x_min":0,"x_max":336,"ha":336,"o":"m 195 389 l 268 700 l 214 700 l 168 505 l 123 700 l 68 700 l 141 389 l 50 0 l 104 0 l 168 273 l 232 0 l 286 0 z"},")":{"x_min":0,"x_max":262,"ha":262,"o":"m 100 700 b 128 621 149 501 149 350 b 149 199 128 79 100 0 l 156 1 b 185 94 202 218 202 350 b 202 481 185 605 155 700 z"},"&":{"x_min":0,"x_max":320,"ha":320,"o":"m 260 599 b 260 645 228 684 186 696 l 186 797 l 133 797 l 133 696 b 91 684 60 645 60 599 l 60 408 b 60 382 69 362 81 349 b 69 335 60 316 60 290 l 60 99 b 60 53 91 14 133 3 l 133 -86 l 186 -86 l 186 3 b 228 14 260 53 260 99 l 260 181 l 207 181 l 207 99 b 207 73 186 52 160 52 b 134 52 113 73 113 99 l 113 290 b 113 314 128 321 140 322 l 160 322 l 160 375 l 140 375 l 135 376 b 128 377 113 383 113 408 l 113 599 b 113 625 134 646 160 646 b 186 646 207 625 207 599 l 207 518 l 260 518 z"},"_":{"x_min":0,"x_max":443,"ha":443,"o":"m 393 0 l 50 0 l 50 -53 l 393 -53 z"},"v":{"x_min":0,"x_max":360,"ha":360,"o":"m 202 0 l 320 700 l 266 700 l 180 187 l 94 700 l 40 700 l 157 0 z"},"O":{"x_min":0,"x_max":319,"ha":319,"o":"m 159 0 b 214 0 259 45 259 99 l 259 601 b 259 655 214 700 159 700 b 105 700 60 655 60 601 l 60 99 b 60 45 105 0 159 0 z m 159 647 b 185 647 206 626 206 601 l 206 99 b 206 74 185 53 159 53 b 134 53 113 74 113 99 l 113 601 b 113 626 134 647 159 647 z"},"(":{"x_min":0,"x_max":262,"ha":262,"o":"m 106 699 b 76 605 60 481 60 350 b 60 218 76 94 106 0 l 161 0 b 134 79 113 199 113 350 b 113 501 134 621 162 700 l 106 700 z"},"C":{"x_min":0,"x_max":319,"ha":319,"o":"m 259 601 b 259 655 214 700 159 700 b 105 700 60 655 60 601 l 60 99 b 60 45 105 0 159 0 b 214 0 259 45 259 99 l 259 183 l 206 183 l 206 99 b 206 74 185 53 159 53 b 134 53 113 74 113 99 l 113 601 b 113 626 134 647 159 647 b 185 647 206 626 206 601 l 206 518 l 259 518 z"},"W":{"x_min":0,"x_max":424,"ha":424,"o":"m 285 260 l 240 700 l 184 700 l 138 260 l 93 700 l 40 700 l 112 0 l 165 0 l 212 457 l 259 0 l 312 0 l 384 700 l 331 700 z"},"A":{"x_min":0,"x_max":360,"ha":360,"o":"m 320 0 l 203 700 l 158 700 l 40 0 l 94 0 l 121 160 l 240 160 l 266 0 z m 180 514 l 231 213 l 130 213 z"},"f":{"x_min":0,"x_max":356,"ha":356,"o":"m 296 700 l 100 700 l 100 0 l 153 0 l 153 323 l 215 323 l 215 377 l 153 377 l 153 647 l 296 647 z"},"Q":{"x_min":0,"x_max":319,"ha":319,"o":"m 159 700 b 105 700 60 655 60 601 l 60 99 b 60 54 91 15 133 4 l 133 -82 l 186 -82 l 186 4 b 228 15 259 54 259 99 l 259 601 b 259 655 214 700 159 700 z m 206 99 b 206 74 185 53 159 53 b 134 53 113 74 113 99 l 113 601 b 113 626 134 647 159 647 b 185 647 206 626 206 601 z"},"w":{"x_min":0,"x_max":424,"ha":424,"o":"m 285 260 l 240 700 l 184 700 l 138 260 l 93 700 l 40 700 l 112 0 l 165 0 l 212 457 l 259 0 l 312 0 l 384 700 l 331 700 z"},"-":{"x_min":0,"x_max":250,"ha":250,"o":"m 200 377 l 50 377 l 50 323 l 200 323 z"},"E":{"x_min":0,"x_max":356,"ha":356,"o":"m 296 700 l 100 700 l 100 0 l 296 0 l 296 53 l 153 53 l 153 323 l 215 323 l 215 377 l 153 377 l 153 647 l 296 647 z"},"s":{"x_min":0,"x_max":319,"ha":319,"o":"m 159 0 b 214 0 259 45 259 99 l 259 224 b 259 309 216 349 178 385 b 143 418 113 447 113 509 l 113 601 b 113 626 134 647 159 647 b 185 647 206 626 206 601 l 206 518 l 259 518 l 259 601 b 259 655 214 700 159 700 b 105 700 60 655 60 601 l 60 509 b 60 424 103 383 141 347 b 176 314 206 286 206 224 l 206 99 b 206 74 185 53 159 53 b 134 53 113 74 113 99 l 113 187 l 60 187 l 60 99 b 60 45 105 0 159 0 z"},">":{"x_min":0,"x_max":306,"ha":306,"o":"m 286 349 l 71 504 l 40 461 l 195 349 l 40 237 l 71 194 z"},"l":{"x_min":0,"x_max":336,"ha":336,"o":"m 296 53 l 153 53 l 153 700 l 100 700 l 100 0 l 296 0 z"},"8":{"x_min":0,"x_max":319,"ha":319,"o":"m 260 600 b 260 655 215 700 160 700 b 105 700 60 655 60 600 l 60 423 b 60 394 72 368 92 350 b 72 332 60 306 60 277 l 60 100 b 60 45 105 0 160 0 b 215 0 260 45 260 100 l 260 277 b 260 306 247 332 227 350 b 247 368 260 394 260 423 z m 207 100 b 207 74 186 53 160 53 b 134 53 113 74 113 100 l 113 277 b 113 303 134 323 160 323 b 186 323 207 303 207 277 z m 113 600 b 113 626 134 647 160 647 b 186 647 207 626 207 600 l 207 423 b 207 397 186 377 160 377 b 134 377 113 397 113 423 z"},"\\":{"x_min":0,"x_max":324,"ha":324,"o":"m 314 -30 l 61 746 l 10 730 l 264 -46 z"},"e":{"x_min":0,"x_max":356,"ha":356,"o":"m 296 700 l 100 700 l 100 0 l 296 0 l 296 53 l 153 53 l 153 323 l 215 323 l 215 377 l 153 377 l 153 647 l 296 647 z"},"b":{"x_min":0,"x_max":359,"ha":359,"o":"m 174 0 b 251 0 299 45 299 117 l 299 250 b 299 294 285 328 260 349 b 285 370 299 400 299 439 l 299 575 b 299 652 254 700 182 700 l 100 700 l 100 0 z m 153 323 l 182 323 b 224 323 246 298 246 250 l 246 117 b 246 74 222 53 174 53 l 153 53 z m 153 647 l 182 647 b 224 647 246 623 246 575 l 246 439 b 246 397 222 376 174 376 l 153 376 z"},"%":{"x_min":0,"x_max":425,"ha":425,"o":"m 150 521 b 199 521 238 561 238 610 b 238 659 199 699 150 699 b 101 699 61 659 61 610 b 61 561 101 521 150 521 z m 150 646 b 169 646 185 630 185 610 b 185 590 169 574 150 574 b 130 574 114 590 114 610 b 114 630 130 646 150 646 z m 60 -38 l 110 -54 l 364 722 l 314 738 z m 276 178 b 227 178 188 138 188 89 b 188 40 227 1 276 1 b 325 1 365 40 365 89 b 365 138 325 178 276 178 z m 276 54 b 257 54 241 70 241 89 b 241 109 257 125 276 125 b 296 125 312 109 312 89 b 312 70 296 54 276 54 z"},"m":{"x_min":0,"x_max":444,"ha":444,"o":"m 344 700 l 297 700 l 222 407 l 147 700 l 100 700 l 100 0 l 153 0 l 153 463 l 200 281 l 244 281 l 291 463 l 291 0 l 344 0 z"},"#":{"x_min":0,"x_max":414,"ha":414,"o":"m 374 443 l 300 443 l 300 618 l 247 618 l 247 443 l 167 443 l 167 618 l 114 618 l 114 443 l 40 443 l 40 390 l 114 390 l 114 310 l 40 310 l 40 257 l 114 257 l 114 82 l 167 82 l 167 257 l 247 257 l 247 82 l 300 82 l 300 257 l 374 257 l 374 310 l 300 310 l 300 390 l 374 390 z m 167 310 l 167 390 l 247 390 l 247 310 z"},",":{"x_min":0,"x_max":176,"ha":176,"o":"m 126 20 l 79 44 l 0 -115 l 48 -139 z"},"n":{"x_min":0,"x_max":399,"ha":399,"o":"m 299 0 l 299 700 l 246 700 l 246 265 l 148 700 l 100 700 l 100 0 l 153 0 l 153 435 l 251 0 z"},"h":{"x_min":0,"x_max":399,"ha":399,"o":"m 246 376 l 153 376 l 153 700 l 100 700 l 100 0 l 153 0 l 153 323 l 246 323 l 246 0 l 299 0 l 299 700 l 246 700 z"},"z":{"x_min":0,"x_max":358,"ha":358,"o":"m 264 53 l 129 53 l 298 700 l 94 700 l 94 647 l 230 647 l 60 0 l 264 0 z"},"B":{"x_min":0,"x_max":359,"ha":359,"o":"m 174 0 b 251 0 299 45 299 117 l 299 250 b 299 294 285 328 260 349 b 285 370 299 400 299 439 l 299 575 b 299 652 254 700 182 700 l 100 700 l 100 0 z m 153 323 l 182 323 b 224 323 246 298 246 250 l 246 117 b 246 74 222 53 174 53 l 153 53 z m 153 647 l 182 647 b 224 647 246 623 246 575 l 246 439 b 246 397 222 376 174 376 l 153 376 z"},"K":{"x_min":0,"x_max":368,"ha":368,"o":"m 262 700 l 153 399 l 153 700 l 100 700 l 100 0 l 153 0 l 153 243 l 174 301 l 263 0 l 318 0 l 204 385 l 318 700 z"},"R":{"x_min":0,"x_max":379,"ha":379,"o":"m 299 575 b 299 652 254 700 182 700 l 100 700 l 100 0 l 153 0 l 153 323 l 182 323 b 224 323 246 298 246 250 l 246 0 l 299 0 l 299 250 b 299 294 285 328 260 349 b 285 370 299 400 299 439 z m 246 439 b 246 397 222 376 174 376 l 153 376 l 153 647 l 182 647 b 224 647 246 623 246 575 z"},"T":{"x_min":0,"x_max":299,"ha":299,"o":"m 40 700 l 40 647 l 123 647 l 123 0 l 176 0 l 176 647 l 259 647 l 259 700 z"},"P":{"x_min":0,"x_max":359,"ha":359,"o":"m 153 323 l 174 323 b 251 323 299 368 299 440 l 299 575 b 299 652 254 700 182 700 l 100 700 l 100 0 l 153 0 z m 153 647 l 182 647 b 224 647 246 623 246 575 l 246 440 b 246 398 222 377 174 377 l 153 377 z"},"|":{"x_min":0,"x_max":253,"ha":253,"o":"m 153 700 l 100 700 l 100 0 l 153 0 z"},"t":{"x_min":0,"x_max":299,"ha":299,"o":"m 40 700 l 40 647 l 123 647 l 123 0 l 176 0 l 176 647 l 259 647 l 259 700 z"},"M":{"x_min":0,"x_max":444,"ha":444,"o":"m 344 700 l 297 700 l 222 407 l 147 700 l 100 700 l 100 0 l 153 0 l 153 463 l 200 281 l 244 281 l 291 463 l 291 0 l 344 0 z"},"g":{"x_min":0,"x_max":319,"ha":319,"o":"m 159 0 b 214 0 259 45 259 99 l 259 376 l 166 376 l 166 324 l 206 324 l 206 99 b 206 74 185 53 159 53 b 134 53 113 74 113 99 l 113 601 b 113 626 134 647 159 647 b 185 647 206 626 206 601 l 206 518 l 259 518 l 259 601 b 259 655 214 700 159 700 b 105 700 60 655 60 601 l 60 99 b 60 45 105 0 159 0 z"},"j":{"x_min":0,"x_max":299,"ha":299,"o":"m 139 0 b 194 0 239 45 239 99 l 239 700 l 186 700 l 186 99 b 186 74 165 53 139 53 b 114 53 93 74 93 99 l 93 187 l 40 187 l 40 99 b 40 45 85 0 139 0 z"},"i":{"x_min":0,"x_max":253,"ha":253,"o":"m 153 700 l 100 700 l 100 0 l 153 0 z"},"y":{"x_min":0,"x_max":322,"ha":322,"o":"m 161 405 l 94 700 l 40 700 l 135 283 l 135 0 l 188 0 l 188 283 l 282 700 l 228 700 z"},"@":{"x_min":0,"x_max":502,"ha":502,"o":"m 251 603 b 146 603 60 517 60 412 l 60 288 b 60 183 146 97 251 97 l 251 150 b 175 150 113 212 113 288 l 113 412 b 113 488 175 550 251 550 b 327 550 389 488 389 412 l 389 266 b 389 255 380 246 369 246 b 358 246 349 255 349 266 l 349 410 b 349 465 304 509 249 509 b 194 509 149 465 149 410 l 149 293 b 149 238 194 193 249 193 b 274 193 297 202 315 218 b 328 203 347 193 369 193 b 409 193 442 226 442 266 l 442 412 b 442 517 356 603 251 603 z m 249 246 b 223 246 203 267 203 293 l 203 410 b 203 435 223 456 249 456 b 275 456 296 435 296 410 l 296 293 b 296 267 275 246 249 246 z"},".":{"x_min":0,"x_max":180,"ha":180,"o":"m 120 40 b 120 62 102 80 80 80 b 58 80 40 62 40 40 b 40 18 58 0 80 0 b 102 0 120 18 120 40 z"},"p":{"x_min":0,"x_max":359,"ha":359,"o":"m 153 323 l 174 323 b 251 323 299 368 299 440 l 299 575 b 299 652 254 700 182 700 l 100 700 l 100 0 l 153 0 z m 153 647 l 182 647 b 224 647 246 623 246 575 l 246 440 b 246 398 222 377 174 377 l 153 377 z"},"X":{"x_min":0,"x_max":336,"ha":336,"o":"m 195 389 l 268 700 l 214 700 l 168 505 l 123 700 l 68 700 l 141 389 l 50 0 l 104 0 l 168 273 l 232 0 l 286 0 z"},"*":{"x_min":0,"x_max":297,"ha":297,"o":"m 207 683 l 175 661 l 175 700 l 122 700 l 122 661 l 90 683 l 60 639 l 101 611 l 60 583 l 90 539 l 122 561 l 122 522 l 175 522 l 175 561 l 207 539 l 237 583 l 195 611 l 237 639 z"},"Y":{"x_min":0,"x_max":322,"ha":322,"o":"m 161 405 l 94 700 l 40 700 l 135 283 l 135 0 l 188 0 l 188 283 l 282 700 l 228 700 z"},"c":{"x_min":0,"x_max":319,"ha":319,"o":"m 259 601 b 259 655 214 700 159 700 b 105 700 60 655 60 601 l 60 99 b 60 45 105 0 159 0 b 214 0 259 45 259 99 l 259 183 l 206 183 l 206 99 b 206 74 185 53 159 53 b 134 53 113 74 113 99 l 113 601 b 113 626 134 647 159 647 b 185 647 206 626 206 601 l 206 518 l 259 518 z"},"!":{"x_min":0,"x_max":253,"ha":253,"o":"m 100 164 l 153 164 l 153 700 l 100 700 z m 153 0 l 153 82 l 100 82 l 100 0 z"},"/":{"x_min":0,"x_max":324,"ha":324,"o":"m 314 730 l 264 746 l 10 -30 l 61 -46 z"},"[":{"x_min":0,"x_max":283,"ha":283,"o":"m 203 53 l 153 53 l 153 647 l 203 647 l 203 700 l 100 700 l 100 0 l 203 0 z"},"6":{"x_min":0,"x_max":319,"ha":319,"o":"m 160 0 b 215 0 260 45 260 100 l 260 327 b 260 382 215 427 160 427 b 143 427 127 423 113 416 l 113 600 b 113 626 134 647 160 647 b 186 647 207 626 207 600 l 207 512 l 260 512 l 260 600 b 260 655 215 700 160 700 b 105 700 60 655 60 600 l 60 100 b 60 45 105 0 160 0 z m 113 327 b 113 353 134 374 160 374 b 186 374 207 353 207 327 l 207 100 b 207 74 186 53 160 53 b 134 53 113 74 113 100 z"},"r":{"x_min":0,"x_max":379,"ha":379,"o":"m 299 575 b 299 652 254 700 182 700 l 100 700 l 100 0 l 153 0 l 153 323 l 182 323 b 224 323 246 298 246 250 l 246 0 l 299 0 l 299 250 b 299 294 285 328 260 349 b 285 370 299 400 299 439 z m 246 439 b 246 397 222 376 174 376 l 153 376 l 153 647 l 182 647 b 224 647 246 623 246 575 z"},"2":{"x_min":0,"x_max":319,"ha":319,"o":"m 259 53 l 114 53 b 119 135 150 194 182 256 b 220 330 260 405 260 521 l 260 600 b 260 655 215 700 160 700 b 105 700 60 655 60 600 l 60 513 l 113 513 l 113 600 b 113 626 134 647 160 647 b 186 647 207 626 207 600 l 207 521 b 207 418 172 351 135 281 b 98 209 60 136 60 27 l 60 0 l 259 0 z"},"{":{"x_min":0,"x_max":301,"ha":301,"o":"m 221 53 b 187 53 170 68 170 98 l 170 282 b 170 309 161 333 145 350 b 161 367 170 391 170 418 l 170 602 b 170 632 187 647 221 647 l 221 700 b 158 700 117 662 117 602 l 117 418 b 117 398 107 377 80 377 l 80 323 b 107 323 117 302 117 282 l 117 98 b 117 38 158 0 221 0 z"},"9":{"x_min":0,"x_max":319,"ha":319,"o":"m 160 0 b 215 0 260 45 260 100 l 260 600 b 260 655 215 700 160 700 b 105 700 60 655 60 600 l 60 373 b 60 318 105 273 160 273 b 177 273 193 277 207 284 l 207 100 b 207 74 186 53 160 53 b 134 53 113 74 113 100 l 113 188 l 60 188 l 60 100 b 60 45 105 0 160 0 z m 160 647 b 186 647 207 626 207 600 l 207 373 b 207 347 186 326 160 326 b 134 326 113 347 113 373 l 113 600 b 113 626 134 647 160 647 z"}," ":{"x_min":0,"x_max":250,"ha":250,"o":""},"I":{"x_min":0,"x_max":253,"ha":253,"o":"m 153 700 l 100 700 l 100 0 l 153 0 z"},"H":{"x_min":0,"x_max":399,"ha":399,"o":"m 246 376 l 153 376 l 153 700 l 100 700 l 100 0 l 153 0 l 153 323 l 246 323 l 246 0 l 299 0 l 299 700 l 246 700 z"},"4":{"x_min":0,"x_max":320,"ha":320,"o":"m 224 116 l 280 116 l 280 169 l 224 169 l 224 700 l 171 700 l 40 116 l 171 116 l 171 0 l 224 0 z m 171 460 l 171 169 l 106 169 z"},"~":{"x_min":0,"x_max":247,"ha":247,"o":"m 98 576 b 112 576 126 582 135 593 b 139 598 144 600 149 600 b 151 600 153 599 155 598 b 157 598 164 595 164 588 l 196 588 b 196 606 184 622 166 628 b 161 630 155 631 149 631 b 135 631 121 625 111 614 b 107 610 103 608 98 608 b 96 608 93 608 92 609 b 90 610 83 613 83 619 l 51 619 b 51 602 63 586 80 579 b 86 577 92 576 98 576 z"},"D":{"x_min":0,"x_max":359,"ha":359,"o":"m 174 0 b 251 0 299 45 299 117 l 299 575 b 299 652 254 700 182 700 l 100 700 l 100 0 z m 153 647 l 182 647 b 224 647 246 623 246 575 l 246 117 b 246 74 222 53 174 53 l 153 53 z"},"^":{"x_min":0,"x_max":247,"ha":247,"o":"m 197 586 l 123 632 l 50 587 l 68 558 l 123 592 l 179 558 z"},"0":{"x_min":0,"x_max":319,"ha":319,"o":"m 159 0 b 214 0 259 45 259 99 l 259 601 b 259 655 214 700 159 700 b 105 700 60 655 60 601 l 60 99 b 60 45 105 0 159 0 z m 159 647 b 185 647 206 626 206 601 l 206 99 b 206 74 185 53 159 53 b 134 53 113 74 113 99 l 113 601 b 113 626 134 647 159 647 z"},"F":{"x_min":0,"x_max":356,"ha":356,"o":"m 296 700 l 100 700 l 100 0 l 153 0 l 153 323 l 215 323 l 215 377 l 153 377 l 153 647 l 296 647 z"},"`":{"x_min":0,"x_max":193,"ha":193,"o":"m 50 604 l 125 558 l 143 586 l 68 633 z"},"k":{"x_min":0,"x_max":368,"ha":368,"o":"m 262 700 l 153 399 l 153 700 l 100 700 l 100 0 l 153 0 l 153 243 l 174 301 l 263 0 l 318 0 l 204 385 l 318 700 z"},"u":{"x_min":0,"x_max":319,"ha":319,"o":"m 159 0 b 214 0 259 45 259 99 l 259 700 l 206 700 l 206 99 b 206 74 185 53 159 53 b 134 53 113 74 113 99 l 113 700 l 60 700 l 60 99 b 60 45 105 0 159 0 z"},"]":{"x_min":0,"x_max":283,"ha":283,"o":"m 183 700 l 80 700 l 80 647 l 130 647 l 130 53 l 80 53 l 80 0 l 183 0 z"},"U":{"x_min":0,"x_max":319,"ha":319,"o":"m 159 0 b 214 0 259 45 259 99 l 259 700 l 206 700 l 206 99 b 206 74 185 53 159 53 b 134 53 113 74 113 99 l 113 700 l 60 700 l 60 99 b 60 45 105 0 159 0 z"},"o":{"x_min":0,"x_max":319,"ha":319,"o":"m 159 0 b 214 0 259 45 259 99 l 259 601 b 259 655 214 700 159 700 b 105 700 60 655 60 601 l 60 99 b 60 45 105 0 159 0 z m 159 647 b 185 647 206 626 206 601 l 206 99 b 206 74 185 53 159 53 b 134 53 113 74 113 99 l 113 601 b 113 626 134 647 159 647 z"},"N":{"x_min":0,"x_max":399,"ha":399,"o":"m 299 0 l 299 700 l 246 700 l 246 265 l 148 700 l 100 700 l 100 0 l 153 0 l 153 435 l 251 0 z"},"+":{"x_min":0,"x_max":328,"ha":328,"o":"m 191 377 l 191 464 l 138 464 l 138 377 l 50 377 l 50 323 l 138 323 l 138 236 l 191 236 l 191 323 l 278 323 l 278 377 z"},"G":{"x_min":0,"x_max":319,"ha":319,"o":"m 159 0 b 214 0 259 45 259 99 l 259 376 l 166 376 l 166 324 l 206 324 l 206 99 b 206 74 185 53 159 53 b 134 53 113 74 113 99 l 113 601 b 113 626 134 647 159 647 b 185 647 206 626 206 601 l 206 518 l 259 518 l 259 601 b 259 655 214 700 159 700 b 105 700 60 655 60 601 l 60 99 b 60 45 105 0 159 0 z"},"q":{"x_min":0,"x_max":319,"ha":319,"o":"m 159 700 b 105 700 60 655 60 601 l 60 99 b 60 54 91 15 133 4 l 133 -82 l 186 -82 l 186 4 b 228 15 259 54 259 99 l 259 601 b 259 655 214 700 159 700 z m 206 99 b 206 74 185 53 159 53 b 134 53 113 74 113 99 l 113 601 b 113 626 134 647 159 647 b 185 647 206 626 206 601 z"},"d":{"x_min":0,"x_max":359,"ha":359,"o":"m 174 0 b 251 0 299 45 299 117 l 299 575 b 299 652 254 700 182 700 l 100 700 l 100 0 z m 153 647 l 182 647 b 224 647 246 623 246 575 l 246 117 b 246 74 222 53 174 53 l 153 53 z"},"1":{"x_min":0,"x_max":293,"ha":293,"o":"m 193 700 l 140 700 b 140 598 63 557 60 555 l 84 508 b 86 509 113 523 140 554 l 140 0 l 193 0 z"},"5":{"x_min":0,"x_max":319,"ha":319,"o":"m 160 0 b 215 0 260 45 260 100 l 260 329 b 260 384 215 429 160 429 b 143 429 127 425 113 418 l 113 647 l 252 647 l 252 700 l 60 700 l 60 329 l 113 329 b 113 355 134 376 160 376 b 186 376 207 355 207 329 l 207 100 b 207 74 186 53 160 53 b 134 53 113 74 113 100 l 113 174 l 60 174 l 60 100 b 60 45 105 0 160 0 z"}}}
